ModelForces
version=1
nRows=4
nColumns=206
inDegrees=no

This file contains the forces exerted on a model during a simulation.

A force is a generalized force, meaning that it can be either a force (N) or a torque (Nm).

Units are S.I. units (second, meters, Newtons, ...)
Angles are in degrees.

endheader
time	glut_med1_r	glut_med2_r	glut_med3_r	glut_min1_r	glut_min2_r	glut_min3_r	semimem_r	semiten_r	bifemlh_r	bifemsh_r	sar_r	add_long_r	add_brev_r	add_mag1_r	add_mag2_r	add_mag3_r	tfl_r	pect_r	grac_r	glut_max1_r	glut_max2_r	glut_max3_r	iliacus_r	psoas_r	quad_fem_r	gem_r	peri_r	rect_fem_r	vas_med_r	vas_int_r	vas_lat_r	med_gas_r	lat_gas_r	soleus_r	tib_post_r	flex_dig_r	flex_hal_r	tib_ant_r	per_brev_r	per_long_r	per_tert_r	ext_dig_r	ext_hal_r	glut_med1_l	glut_med2_l	glut_med3_l	glut_min1_l	glut_min2_l	glut_min3_l	semimem_l	semiten_l	bifemlh_l	bifemsh_l	sar_l	add_long_l	add_brev_l	add_mag1_l	add_mag2_l	add_mag3_l	tfl_l	pect_l	grac_l	glut_max1_l	glut_max2_l	glut_max3_l	iliacus_l	psoas_l	quad_fem_l	gem_l	peri_l	rect_fem_l	vas_med_l	vas_int_l	vas_lat_l	med_gas_l	lat_gas_l	soleus_l	tib_post_l	flex_dig_l	flex_hal_l	tib_ant_l	per_brev_l	per_long_l	per_tert_l	ext_dig_l	ext_hal_l	ercspn_r	ercspn_l	intobl_r	intobl_l	extobl_r	extobl_l	femur_lat_meniscii_l.femur_lat_l.force.X	femur_lat_meniscii_l.femur_lat_l.force.Y	femur_lat_meniscii_l.femur_lat_l.force.Z	femur_lat_meniscii_l.femur_lat_l.torque.X	femur_lat_meniscii_l.femur_lat_l.torque.Y	femur_lat_meniscii_l.femur_lat_l.torque.Z	femur_lat_meniscii_l.meniscus_lat_l.force.X	femur_lat_meniscii_l.meniscus_lat_l.force.Y	femur_lat_meniscii_l.meniscus_lat_l.force.Z	femur_lat_meniscii_l.meniscus_lat_l.torque.X	femur_lat_meniscii_l.meniscus_lat_l.torque.Y	femur_lat_meniscii_l.meniscus_lat_l.torque.Z	femur_med_meniscii_l.femur_med_l.force.X	femur_med_meniscii_l.femur_med_l.force.Y	femur_med_meniscii_l.femur_med_l.force.Z	femur_med_meniscii_l.femur_med_l.torque.X	femur_med_meniscii_l.femur_med_l.torque.Y	femur_med_meniscii_l.femur_med_l.torque.Z	femur_med_meniscii_l.meniscus_med_l.force.X	femur_med_meniscii_l.meniscus_med_l.force.Y	femur_med_meniscii_l.meniscus_med_l.force.Z	femur_med_meniscii_l.meniscus_med_l.torque.X	femur_med_meniscii_l.meniscus_med_l.torque.Y	femur_med_meniscii_l.meniscus_med_l.torque.Z	femur_lat_meniscii_r.femur_lat_r.force.X	femur_lat_meniscii_r.femur_lat_r.force.Y	femur_lat_meniscii_r.femur_lat_r.force.Z	femur_lat_meniscii_r.femur_lat_r.torque.X	femur_lat_meniscii_r.femur_lat_r.torque.Y	femur_lat_meniscii_r.femur_lat_r.torque.Z	femur_lat_meniscii_r.meniscus_lat_r.force.X	femur_lat_meniscii_r.meniscus_lat_r.force.Y	femur_lat_meniscii_r.meniscus_lat_r.force.Z	femur_lat_meniscii_r.meniscus_lat_r.torque.X	femur_lat_meniscii_r.meniscus_lat_r.torque.Y	femur_lat_meniscii_r.meniscus_lat_r.torque.Z	femur_med_meniscii_r.femur_med_r.force.X	femur_med_meniscii_r.femur_med_r.force.Y	femur_med_meniscii_r.femur_med_r.force.Z	femur_med_meniscii_r.femur_med_r.torque.X	femur_med_meniscii_r.femur_med_r.torque.Y	femur_med_meniscii_r.femur_med_r.torque.Z	femur_med_meniscii_r.meniscus_med_r.force.X	femur_med_meniscii_r.meniscus_med_r.force.Y	femur_med_meniscii_r.meniscus_med_r.force.Z	femur_med_meniscii_r.meniscus_med_r.torque.X	femur_med_meniscii_r.meniscus_med_r.torque.Y	femur_med_meniscii_r.meniscus_med_r.torque.Z	femur_med_tibia_l.tibia_upper_l.force.X	femur_med_tibia_l.tibia_upper_l.force.Y	femur_med_tibia_l.tibia_upper_l.force.Z	femur_med_tibia_l.tibia_upper_l.torque.X	femur_med_tibia_l.tibia_upper_l.torque.Y	femur_med_tibia_l.tibia_upper_l.torque.Z	femur_med_tibia_l.femur_med_l.force.X	femur_med_tibia_l.femur_med_l.force.Y	femur_med_tibia_l.femur_med_l.force.Z	femur_med_tibia_l.femur_med_l.torque.X	femur_med_tibia_l.femur_med_l.torque.Y	femur_med_tibia_l.femur_med_l.torque.Z	femur_lat_tibia_l.tibia_upper_l.force.X	femur_lat_tibia_l.tibia_upper_l.force.Y	femur_lat_tibia_l.tibia_upper_l.force.Z	femur_lat_tibia_l.tibia_upper_l.torque.X	femur_lat_tibia_l.tibia_upper_l.torque.Y	femur_lat_tibia_l.tibia_upper_l.torque.Z	femur_lat_tibia_l.femur_lat_l.force.X	femur_lat_tibia_l.femur_lat_l.force.Y	femur_lat_tibia_l.femur_lat_l.force.Z	femur_lat_tibia_l.femur_lat_l.torque.X	femur_lat_tibia_l.femur_lat_l.torque.Y	femur_lat_tibia_l.femur_lat_l.torque.Z	femur_med_tibia_r.tibia_upper_r.force.X	femur_med_tibia_r.tibia_upper_r.force.Y	femur_med_tibia_r.tibia_upper_r.force.Z	femur_med_tibia_r.tibia_upper_r.torque.X	femur_med_tibia_r.tibia_upper_r.torque.Y	femur_med_tibia_r.tibia_upper_r.torque.Z	femur_med_tibia_r.femur_med_r.force.X	femur_med_tibia_r.femur_med_r.force.Y	femur_med_tibia_r.femur_med_r.force.Z	femur_med_tibia_r.femur_med_r.torque.X	femur_med_tibia_r.femur_med_r.torque.Y	femur_med_tibia_r.femur_med_r.torque.Z	femur_lat_tibia_r.tibia_upper_r.force.X	femur_lat_tibia_r.tibia_upper_r.force.Y	femur_lat_tibia_r.tibia_upper_r.force.Z	femur_lat_tibia_r.tibia_upper_r.torque.X	femur_lat_tibia_r.tibia_upper_r.torque.Y	femur_lat_tibia_r.tibia_upper_r.torque.Z	femur_lat_tibia_r.femur_lat_r.force.X	femur_lat_tibia_r.femur_lat_r.force.Y	femur_lat_tibia_r.femur_lat_r.force.Z	femur_lat_tibia_r.femur_lat_r.torque.X	femur_lat_tibia_r.femur_lat_r.torque.Y	femur_lat_tibia_r.femur_lat_r.torque.Z	aACL_R	pACL_R	aPCL_R	pPCL_R	aMCL_R	mMCL_R	pMCL_R	aLCL_R	mLCL_R	pLCL_R	aPCL_L	pPCL_L	aMCL_L	aLCL_L	ground_prescribedForce_-90_fx	ground_prescribedForce_-90_fy	ground_prescribedForce_-90_fz
      0.24662028	      8.88136043	      6.58061244	      7.05714450	      3.06870867	      3.62321471	      3.75543737	      0.00000000	      3.85959485	      4.43770677	      6.19387756	      1.71612866	      6.53115817	      4.77297731	      3.38677656	      2.85717915	      4.71649847	      3.43328806	      2.58614389	      1.61408550	      4.24645804	      6.45603278	      4.83234167	     24.31105660	     14.84596469	      4.19874927	      3.12457016	      5.09496150	    245.50455139	     45.61263802	     87.49732726	     64.20809872	      0.00000000	      0.00000000	     12.84749831	     14.40816896	      2.62262983	      2.99985704	     14.63189173	      4.35132126	     10.25493645	      6.71794235	      7.84202312	      2.46548718	      8.88136043	      6.58061244	      7.05714450	      3.06870867	      3.62321471	      3.75543737	     10.65598277	      4.79731597	      9.28460064	      8.35514977	      1.75279649	      6.53115817	      4.77297731	      3.38677656	      2.85717915	      4.71649847	      4.54857694	      2.58614389	      1.80222273	      4.24645804	      6.45603278	      4.83234167	     24.31105660	     14.84596469	      4.19874927	      3.12457016	      5.09496150	     12.85177847	      7.68521341	      8.84133300	      9.50036966	     17.95094557	      8.33747067	     38.72810785	     45.44366602	      3.55515526	      3.66439927	     10.10330580	      5.30253269	     14.61897102	      2.29678051	      6.53567160	      2.05669169	     28.86985229	     28.86985229	     10.52316225	     10.52316225	     28.17361614	     28.17361614	      2.76307435	     50.99597937	     -9.56042239	      5.21997485	     -0.02578839	      1.48581788	     -2.76307435	    -50.99597937	      9.56042239	     -1.74637766	      0.02558040	     -0.48301696	     -3.31599387	     20.97615968	     -3.40468921	      0.94473225	     -0.02138609	     -1.00501789	      3.31599387	    -20.97615968	      3.40468921	      0.28075727	      0.00368718	     -0.29758878	    208.06839486	     -4.33241524	     37.24037125	    -14.94765278	      5.09457171	     84.56485795	   -208.06839486	      4.33241524	    -37.24037125	     -0.01759431	     -6.94674908	     -1.16691010	     75.04785630	    -56.34370050	    -12.28248871	      3.91099478	     -1.44744130	     30.27327085	    -75.04785630	     56.34370050	     12.28248871	      0.80728660	      1.51741853	     -1.76486876	      0.00000000	      0.00000000	      0.00000000	      0.00000000	      0.00000000	      0.00000000	      0.00000000	      0.00000000	      0.00000000	      0.00000000	      0.00000000	      0.00000000	      0.00000000	      0.00000000	      0.00000000	      0.00000000	      0.00000000	      0.00000000	      0.00000000	      0.00000000	      0.00000000	      0.00000000	      0.00000000	      0.00000000	   -540.71013684	     26.15168372	    111.61547643	     -0.06222011	     10.54643177	     -2.72023682	    540.71013684	    -26.15168372	   -111.61547643	     44.76816769	     -9.37863847	    219.02016265	    -37.65395030	     -5.59867537	    -10.99232427	      0.21355647	     -1.38829677	     -0.02431263	     37.65395030	      5.59867537	     10.99232427	     -4.60498961	      0.93104552	     15.29995430	     33.33494393	     11.49534873	    788.74699842	    376.47713859	      8.62567378	     -0.79349510	      0.00000000	      0.00000000	      0.00000000	      0.00000000	      0.00000000	      0.00000000	      0.00000001	      0.00000000	      0.00000000	   -110.00000000	      0.00000000
      0.24839686	      8.85076398	      6.55969348	      7.03443145	      3.05936673	      3.61306360	      3.74252930	      0.00000000	      3.84050189	      4.41204073	      6.16572400	      1.71084396	      6.51015123	      4.75858119	      3.37607820	      2.84793698	      4.69975812	      3.42598812	      2.57821826	      1.60756574	      4.23294582	      6.43543194	      4.81665010	     24.27291141	     14.80271018	      4.18568618	      3.11834437	      5.07286447	    245.50391785	     45.55090914	     87.46336600	     64.11670325	      0.00000000	      0.00000000	     12.75758420	     14.12044808	      2.64052761	      2.96768801	     14.55997110	      4.42033372	     10.31991303	      6.74516292	      7.69737755	      2.43124699	      8.85076398	      6.55969348	      7.03443145	      3.05936673	      3.61306360	      3.74252930	     10.61276927	      4.78093622	      9.24816162	      8.32913421	      1.74748526	      6.51015123	      4.75858119	      3.37607820	      2.84793698	      4.69975812	      4.53820297	      2.57821826	      1.79666565	      4.23294582	      6.43543194	      4.81665010	     24.27291141	     14.80271018	      4.18568618	      3.11834437	      5.07286447	     12.80199022	      7.66015012	      8.81196292	      9.46892134	     17.86754479	      8.29868815	     38.55981158	     45.37419918	      3.53741996	      3.64793001	     10.06551224	      5.28072567	     14.57168916	      2.29009630	      6.50572083	      2.04746287	     28.78176409	     28.78176409	     10.48826011	     10.48826011	     28.14221509	     28.14221509	      2.76307435	     50.99597937	     -9.56042239	      5.21997485	     -0.02578839	      1.48581788	     -2.76307435	    -50.99597937	      9.56042239	     -1.74637766	      0.02558040	     -0.48301696	     -3.31599387	     20.97615968	     -3.40468921	      0.94473225	     -0.02138609	     -1.00501789	      3.31599387	    -20.97615968	      3.40468921	      0.28075727	      0.00368718	     -0.29758878	    207.60907090	     -4.06216671	     38.76905971	    -15.57515720	      5.10337335	     84.37520449	   -207.60907090	      4.06216671	    -38.76905971	     -0.00286347	     -6.99674594	     -1.15298482	     75.43166663	    -56.42319216	    -11.56298396	      3.62368473	     -1.44893540	     30.42669769	    -75.43166663	     56.42319216	     11.56298396	      0.80577699	      1.49714628	     -1.76614869	      0.00000000	      0.00000000	      0.00000000	      0.00000000	      0.00000000	      0.00000000	      0.00000000	      0.00000000	      0.00000000	      0.00000000	      0.00000000	      0.00000000	      0.00000000	      0.00000000	      0.00000000	      0.00000000	      0.00000000	      0.00000000	      0.00000000	      0.00000000	      0.00000000	      0.00000000	      0.00000000	      0.00000000	   -542.96884550	     25.78286834	    108.54585380	     -0.05598949	     10.45277055	     -2.70912587	    542.96884550	    -25.78286834	   -108.54585380	     43.53170755	     -9.37922889	    219.92867535	    -36.33471159	     -5.43848634	    -10.83897263	      0.20845785	     -1.34905506	     -0.02177864	     36.33471159	      5.43848634	     10.83897263	     -4.53900695	      0.90134075	     14.76341019	     33.13644360	     11.19550119	    788.80949064	    376.57168271	      8.68679856	     -0.67719365	      0.00000000	      0.00000000	      0.00000000	      0.00000000	      0.00000000	      0.00000000	      0.00000001	      0.00000000	      0.00000000	   -110.00000000	      0.00000000
      0.25017344	      8.82087559	      6.53925593	      7.01224193	      3.05023862	      3.60314582	      3.72991982	      0.00000000	      3.82071830	      4.38687277	      6.13292730	      1.70338426	      6.48962850	      4.74451417	      3.36562609	      2.83890822	      4.68340546	      3.41709502	      2.57047426	      1.60065545	      4.21974513	      6.41530613	      4.80132089	     24.23564896	     14.76046248	      4.17292299	      3.11226379	      5.05125000	    245.46594928	     45.46112876	     87.37546238	     63.98504713	      0.00000000	      0.00000000	     12.66683470	     13.83152369	      2.66061947	      2.93747627	     14.49360936	      4.48872061	     10.38639239	      6.76870940	      7.54906839	      2.39756340	      8.82087559	      6.53925593	      7.01224193	      3.05023862	      3.60314582	      3.72991982	     10.57053167	      4.76493536	      9.21255304	      8.30371608	      1.74229552	      6.48962850	      4.74451417	      3.36562609	      2.83890822	      4.68340546	      4.52806930	      2.57047426	      1.79123600	      4.21974513	      6.41530613	      4.80132089	     24.23564896	     14.76046248	      4.17292299	      3.11226379	      5.05125000	     12.75333993	      7.63566715	      8.78327394	      9.43820313	     17.78587379	      8.26071062	     38.39519786	     45.30630466	      3.52007340	      3.63182947	     10.02858837	      5.25940885	     14.52543734	      2.28356725	      6.47642042	      2.03843907	     28.69569281	     28.69569281	     10.45416419	     10.45416419	     28.11154128	     28.11154128	      2.76307435	     50.99597937	     -9.56042239	      5.21997485	     -0.02578839	      1.48581788	     -2.76307435	    -50.99597937	      9.56042239	     -1.74637766	      0.02558040	     -0.48301696	     -3.31599387	     20.97615968	     -3.40468921	      0.94473225	     -0.02138609	     -1.00501789	      3.31599387	    -20.97615968	      3.40468921	      0.28075727	      0.00368718	     -0.29758878	    207.44031525	     -3.99171430	     37.33134381	    -14.99287117	      5.08094032	     84.30577634	   -207.44031525	      3.99171430	    -37.33134381	     -0.00787722	     -6.93118190	     -1.14846074	     75.67125652	    -56.59119971	    -12.27597508	      3.90301802	     -1.46059169	     30.52372314	    -75.67125652	     56.59119971	     12.27597508	      0.81240121	      1.52880054	     -1.77149161	      0.00000000	      0.00000000	      0.00000000	      0.00000000	      0.00000000	      0.00000000	      0.00000000	      0.00000000	      0.00000000	      0.00000000	      0.00000000	      0.00000000	      0.00000000	      0.00000000	      0.00000000	      0.00000000	      0.00000000	      0.00000000	      0.00000000	      0.00000000	      0.00000000	      0.00000000	      0.00000000	      0.00000000	   -543.75935087	     25.90356908	    111.59036235	     -0.06306548	     10.59191894	     -2.71184870	    543.75935087	    -25.90356908	   -111.59036235	     44.76105107	     -9.43085250	    220.24740782	    -35.27643014	     -5.27768367	    -10.32122270	      0.20084301	     -1.30094072	     -0.02108517	     35.27643014	      5.27768367	     10.32122270	     -4.32423205	      0.87227747	     14.33341992	     33.46597775	     11.54874527	    788.77960571	    376.28803050	      8.65829570	     -0.70954426	      0.00000000	      0.00000000	      0.00000000	      0.00000000	      0.00000000	      0.00000000	      0.00000001	      0.00000000	      0.00000000	   -110.00000000	      0.00000000
      0.25195003	      8.79167861	      6.51928854	      6.99056370	      3.04131940	      3.59345592	      3.71760191	      0.00000000	      3.80216451	      4.36196785	      6.10598775	      1.69854121	      6.46957865	      4.73076865	      3.35541448	      2.83008785	      4.66743137	      3.40887927	      2.56290767	      1.59443727	      4.20684868	      6.39564420	      4.78634555	     24.19924839	     14.71919766	      4.16045271	      3.10632493	      5.03010749	    245.46584344	     45.40382931	     87.35114048	     63.91048786	      0.00000000	      0.00000000	     12.57885437	     13.53716724	      2.68171173	      2.90813209	     14.42570206	      4.56086604	     10.45879719	      6.79614894	      7.39816803	      2.36422248	      8.79167861	      6.51928854	      6.99056370	      3.04131940	      3.59345592	      3.71760191	     10.52924785	      4.74930448	      9.17775588	      8.27888147	      1.73722447	      6.46957865	      4.73076865	      3.35541448	      2.83008785	      4.66743137	      4.51817025	      2.56290767	      1.78593082	      4.20684868	      6.39564420	      4.78634555	     24.19924839	     14.71919766	      4.16045271	      3.10632493	      5.03010749	     12.70580139	      7.61175078	      8.75524996	      9.40819770	     17.70589602	      8.22352103	     38.23418572	     45.23994616	      3.50310528	      3.61608793	      9.99251397	      5.23857114	     14.48019261	      2.27718968	      6.44775732	      2.02961609	     28.61159175	     28.61159175	     10.42085556	     10.42085556	     28.08157752	     28.08157752	      2.76307435	     50.99597937	     -9.56042239	      5.21997485	     -0.02578839	      1.48581788	     -2.76307435	    -50.99597937	      9.56042239	     -1.74637766	      0.02558040	     -0.48301696	     -3.31599387	     20.97615968	     -3.40468921	      0.94473225	     -0.02138609	     -1.00501789	      3.31599387	    -20.97615968	      3.40468921	      0.28075727	      0.00368718	     -0.29758878	    207.04259909	     -3.76378241	     38.76437244	    -15.58049245	      5.09009572	     84.14155424	   -207.04259909	      3.76378241	    -38.76437244	      0.00521140	     -6.97911810	     -1.13655251	     76.00522148	    -56.67572028	    -11.57113269	      3.62134068	     -1.46112746	     30.65737026	    -76.00522148	     56.67572028	     11.57113269	      0.81109136	      1.50815199	     -1.77317733	      0.00000000	      0.00000000	      0.00000000	      0.00000000	      0.00000000	      0.00000000	      0.00000000	      0.00000000	      0.00000000	      0.00000000	      0.00000000	      0.00000000	      0.00000000	      0.00000000	      0.00000000	      0.00000000	      0.00000000	      0.00000000	      0.00000000	      0.00000000	      0.00000000	      0.00000000	      0.00000000	      0.00000000	   -545.79721830	     25.53532801	    108.64314393	     -0.05735021	     10.50024193	     -2.70042253	    545.79721830	    -25.53532801	   -108.64314393	     43.57414923	     -9.42928321	    221.06671525	    -34.10586524	     -5.13101942	    -10.19127053	      0.19624912	     -1.26638355	     -0.01902816	     34.10586524	      5.13101942	     10.19127053	     -4.26808244	      0.84598764	     13.85738695	     33.27037227	     11.25702602	    788.84257784	    376.39028747	      8.73139239	     -0.58476721	      0.00000000	      0.00000000	      0.00000000	      0.00000000	      0.00000000	      0.00000000	      0.00000001	      0.00000000	      0.00000000	   -110.00000000	      0.00000000
